<?xml version="1.0" encoding="UTF-8" standalone="no"?>
<!DOCTYPE svg PUBLIC "-//W3C//DTD SVG 1.1//EN" "http://www.w3.org/Graphics/SVG/1.1/DTD/svg11.dtd">
<svg width="100%" height="100%" viewBox="0 0 511 511" version="1.1" xmlns="http://www.w3.org/2000/svg" xmlns:xlink="http://www.w3.org/1999/xlink" xml:space="preserve" xmlns:serif="http://www.serif.com/" style="fill-rule:evenodd;clip-rule:evenodd;stroke-linejoin:round;stroke-miterlimit:2;">
    <g id="circle2" transform="matrix(0.989153,0.14689,-0.14689,0.989153,40.2332,-34.6997)">
        <path d="M188.249,501.156C324.173,538.061 464.251,457.806 501.156,321.882C538.061,185.959 457.806,45.88 321.882,8.975C185.959,-27.93 45.88,52.326 8.975,188.249C-27.93,324.173 52.326,464.251 188.249,501.156Z" style="fill:white;fill-rule:nonzero;"/>
    </g>
    <g id="path2" transform="matrix(0.989153,0.14689,-0.14689,0.989153,40.2332,-34.6997)">
        <path d="M166.93,494.366C122.194,473.27 93.525,428.054 93.525,378.593C93.525,308.374 151.307,250.593 221.525,250.593C232.854,250.593 244.133,252.097 255.066,255.066C265.995,258.032 277.271,259.535 288.596,259.535C358.815,259.535 416.596,201.754 416.596,131.535C416.596,82.071 387.923,36.852 343.181,15.758C336.246,13.213 329.144,10.947 321.882,8.975C185.959,-27.93 45.88,52.326 8.975,188.249C-25.956,316.904 44.077,449.281 166.93,494.366Z" style="fill:rgb(94,77,102);fill-rule:nonzero;"/>
    </g>
    <g transform="matrix(-0.916104,-0.40094,0.40094,-0.916104,40.2332,-34.6997)">
        <g id="circle3">
            <circle cx="-312.987" cy="-307.321" r="39.802" style="fill:rgb(94,77,102);"/>
        </g>
    </g>
    <g transform="matrix(-0.916104,-0.40094,0.40094,-0.916104,40.2332,-34.6997)">
        <g id="circle4">
            <circle cx="-312.987" cy="-51.321" r="39.802" style="fill:white;"/>
        </g>
    </g>
</svg>
